G04 #@! TF.GenerationSoftware,KiCad,Pcbnew,(5.1.8)-1*
G04 #@! TF.CreationDate,2021-12-20T19:06:15+01:00*
G04 #@! TF.ProjectId,Elab car PCB,456c6162-2063-4617-9220-5043422e6b69,rev?*
G04 #@! TF.SameCoordinates,Original*
G04 #@! TF.FileFunction,Soldermask,Top*
G04 #@! TF.FilePolarity,Negative*
%FSLAX46Y46*%
G04 Gerber Fmt 4.6, Leading zero omitted, Abs format (unit mm)*
G04 Created by KiCad (PCBNEW (5.1.8)-1) date 2021-12-20 19:06:15*
%MOMM*%
%LPD*%
G01*
G04 APERTURE LIST*
%ADD10C,1.524000*%
%ADD11C,5.600000*%
%ADD12O,1.700000X1.700000*%
%ADD13R,1.700000X1.700000*%
%ADD14R,0.800000X1.900000*%
%ADD15R,5.000000X5.000000*%
%ADD16R,2.000000X0.900000*%
%ADD17R,0.900000X2.000000*%
%ADD18C,2.500000*%
%ADD19R,1.600000X1.600000*%
%ADD20C,1.600000*%
%ADD21C,4.000000*%
%ADD22C,2.000000*%
%ADD23O,1.600000X1.600000*%
%ADD24R,4.600000X1.100000*%
%ADD25R,9.400000X10.800000*%
%ADD26R,2.100000X1.800000*%
%ADD27R,3.800000X2.000000*%
%ADD28R,1.500000X2.000000*%
%ADD29O,1.050000X1.500000*%
%ADD30R,1.050000X1.500000*%
%ADD31R,3.000000X3.000000*%
%ADD32C,3.000000*%
%ADD33R,1.500000X1.000000*%
G04 APERTURE END LIST*
D10*
X118745000Y-119380000D03*
X121285000Y-119380000D03*
X123825000Y-119380000D03*
X123825000Y-114300000D03*
X121285000Y-114300000D03*
X118745000Y-114300000D03*
D11*
X173900000Y-61300000D03*
X173900000Y-141900000D03*
X105500000Y-141900000D03*
X105500000Y-61300000D03*
D12*
X91440000Y-74930000D03*
X93980000Y-74930000D03*
D13*
X96520000Y-74930000D03*
D12*
X159385000Y-158115000D03*
X161925000Y-158115000D03*
X164465000Y-158115000D03*
D13*
X167005000Y-158115000D03*
D12*
X112395000Y-158115000D03*
X114935000Y-158115000D03*
X117475000Y-158115000D03*
D13*
X120015000Y-158115000D03*
D14*
X168275000Y-55650000D03*
X169225000Y-58650000D03*
X167325000Y-58650000D03*
X161290000Y-55650000D03*
X162240000Y-58650000D03*
X160340000Y-58650000D03*
D15*
X138700000Y-55887000D03*
D16*
X131200000Y-48387000D03*
X131200000Y-49657000D03*
X131200000Y-50927000D03*
X131200000Y-52197000D03*
X131200000Y-53467000D03*
X131200000Y-54737000D03*
X131200000Y-56007000D03*
X131200000Y-57277000D03*
X131200000Y-58547000D03*
X131200000Y-59817000D03*
X131200000Y-61087000D03*
X131200000Y-62357000D03*
X131200000Y-63627000D03*
X131200000Y-64897000D03*
D17*
X133985000Y-65897000D03*
X135255000Y-65897000D03*
X136525000Y-65897000D03*
X137795000Y-65897000D03*
X139065000Y-65897000D03*
X140335000Y-65897000D03*
X141605000Y-65897000D03*
X142875000Y-65897000D03*
X144145000Y-65897000D03*
X145415000Y-65897000D03*
D16*
X148200000Y-64897000D03*
X148200000Y-63627000D03*
X148200000Y-62357000D03*
X148200000Y-61087000D03*
X148200000Y-59817000D03*
X148200000Y-58547000D03*
X148200000Y-57277000D03*
X148200000Y-56007000D03*
X148200000Y-54737000D03*
X148200000Y-53467000D03*
X148200000Y-52197000D03*
X148200000Y-50927000D03*
X148200000Y-49657000D03*
X148200000Y-48387000D03*
D18*
X156210000Y-52070000D03*
X159385000Y-64770000D03*
X116205000Y-141605000D03*
X159385000Y-139065000D03*
X102870000Y-52705000D03*
X177165000Y-55245000D03*
X120015000Y-72390000D03*
X130175000Y-73660000D03*
X131445000Y-113030000D03*
X102235000Y-68580000D03*
X121920000Y-85090000D03*
X128270000Y-122555000D03*
X112395000Y-102235000D03*
X97790000Y-98425000D03*
D13*
X114935000Y-131445000D03*
D12*
X117475000Y-131445000D03*
X120015000Y-131445000D03*
X122555000Y-131445000D03*
D19*
X195165000Y-100965000D03*
D20*
X195165000Y-103465000D03*
X197165000Y-103465000D03*
X197165000Y-100965000D03*
D21*
X200025000Y-108215000D03*
X200025000Y-96215000D03*
G36*
G01*
X195285000Y-90020000D02*
X195285000Y-90320000D01*
G75*
G02*
X195135000Y-90470000I-150000J0D01*
G01*
X193485000Y-90470000D01*
G75*
G02*
X193335000Y-90320000I0J150000D01*
G01*
X193335000Y-90020000D01*
G75*
G02*
X193485000Y-89870000I150000J0D01*
G01*
X195135000Y-89870000D01*
G75*
G02*
X195285000Y-90020000I0J-150000D01*
G01*
G37*
G36*
G01*
X195285000Y-88750000D02*
X195285000Y-89050000D01*
G75*
G02*
X195135000Y-89200000I-150000J0D01*
G01*
X193485000Y-89200000D01*
G75*
G02*
X193335000Y-89050000I0J150000D01*
G01*
X193335000Y-88750000D01*
G75*
G02*
X193485000Y-88600000I150000J0D01*
G01*
X195135000Y-88600000D01*
G75*
G02*
X195285000Y-88750000I0J-150000D01*
G01*
G37*
G36*
G01*
X195285000Y-87480000D02*
X195285000Y-87780000D01*
G75*
G02*
X195135000Y-87930000I-150000J0D01*
G01*
X193485000Y-87930000D01*
G75*
G02*
X193335000Y-87780000I0J150000D01*
G01*
X193335000Y-87480000D01*
G75*
G02*
X193485000Y-87330000I150000J0D01*
G01*
X195135000Y-87330000D01*
G75*
G02*
X195285000Y-87480000I0J-150000D01*
G01*
G37*
G36*
G01*
X195285000Y-86210000D02*
X195285000Y-86510000D01*
G75*
G02*
X195135000Y-86660000I-150000J0D01*
G01*
X193485000Y-86660000D01*
G75*
G02*
X193335000Y-86510000I0J150000D01*
G01*
X193335000Y-86210000D01*
G75*
G02*
X193485000Y-86060000I150000J0D01*
G01*
X195135000Y-86060000D01*
G75*
G02*
X195285000Y-86210000I0J-150000D01*
G01*
G37*
G36*
G01*
X195285000Y-84940000D02*
X195285000Y-85240000D01*
G75*
G02*
X195135000Y-85390000I-150000J0D01*
G01*
X193485000Y-85390000D01*
G75*
G02*
X193335000Y-85240000I0J150000D01*
G01*
X193335000Y-84940000D01*
G75*
G02*
X193485000Y-84790000I150000J0D01*
G01*
X195135000Y-84790000D01*
G75*
G02*
X195285000Y-84940000I0J-150000D01*
G01*
G37*
G36*
G01*
X195285000Y-83670000D02*
X195285000Y-83970000D01*
G75*
G02*
X195135000Y-84120000I-150000J0D01*
G01*
X193485000Y-84120000D01*
G75*
G02*
X193335000Y-83970000I0J150000D01*
G01*
X193335000Y-83670000D01*
G75*
G02*
X193485000Y-83520000I150000J0D01*
G01*
X195135000Y-83520000D01*
G75*
G02*
X195285000Y-83670000I0J-150000D01*
G01*
G37*
G36*
G01*
X195285000Y-82400000D02*
X195285000Y-82700000D01*
G75*
G02*
X195135000Y-82850000I-150000J0D01*
G01*
X193485000Y-82850000D01*
G75*
G02*
X193335000Y-82700000I0J150000D01*
G01*
X193335000Y-82400000D01*
G75*
G02*
X193485000Y-82250000I150000J0D01*
G01*
X195135000Y-82250000D01*
G75*
G02*
X195285000Y-82400000I0J-150000D01*
G01*
G37*
G36*
G01*
X195285000Y-81130000D02*
X195285000Y-81430000D01*
G75*
G02*
X195135000Y-81580000I-150000J0D01*
G01*
X193485000Y-81580000D01*
G75*
G02*
X193335000Y-81430000I0J150000D01*
G01*
X193335000Y-81130000D01*
G75*
G02*
X193485000Y-80980000I150000J0D01*
G01*
X195135000Y-80980000D01*
G75*
G02*
X195285000Y-81130000I0J-150000D01*
G01*
G37*
G36*
G01*
X190335000Y-81130000D02*
X190335000Y-81430000D01*
G75*
G02*
X190185000Y-81580000I-150000J0D01*
G01*
X188535000Y-81580000D01*
G75*
G02*
X188385000Y-81430000I0J150000D01*
G01*
X188385000Y-81130000D01*
G75*
G02*
X188535000Y-80980000I150000J0D01*
G01*
X190185000Y-80980000D01*
G75*
G02*
X190335000Y-81130000I0J-150000D01*
G01*
G37*
G36*
G01*
X190335000Y-82400000D02*
X190335000Y-82700000D01*
G75*
G02*
X190185000Y-82850000I-150000J0D01*
G01*
X188535000Y-82850000D01*
G75*
G02*
X188385000Y-82700000I0J150000D01*
G01*
X188385000Y-82400000D01*
G75*
G02*
X188535000Y-82250000I150000J0D01*
G01*
X190185000Y-82250000D01*
G75*
G02*
X190335000Y-82400000I0J-150000D01*
G01*
G37*
G36*
G01*
X190335000Y-83670000D02*
X190335000Y-83970000D01*
G75*
G02*
X190185000Y-84120000I-150000J0D01*
G01*
X188535000Y-84120000D01*
G75*
G02*
X188385000Y-83970000I0J150000D01*
G01*
X188385000Y-83670000D01*
G75*
G02*
X188535000Y-83520000I150000J0D01*
G01*
X190185000Y-83520000D01*
G75*
G02*
X190335000Y-83670000I0J-150000D01*
G01*
G37*
G36*
G01*
X190335000Y-84940000D02*
X190335000Y-85240000D01*
G75*
G02*
X190185000Y-85390000I-150000J0D01*
G01*
X188535000Y-85390000D01*
G75*
G02*
X188385000Y-85240000I0J150000D01*
G01*
X188385000Y-84940000D01*
G75*
G02*
X188535000Y-84790000I150000J0D01*
G01*
X190185000Y-84790000D01*
G75*
G02*
X190335000Y-84940000I0J-150000D01*
G01*
G37*
G36*
G01*
X190335000Y-86210000D02*
X190335000Y-86510000D01*
G75*
G02*
X190185000Y-86660000I-150000J0D01*
G01*
X188535000Y-86660000D01*
G75*
G02*
X188385000Y-86510000I0J150000D01*
G01*
X188385000Y-86210000D01*
G75*
G02*
X188535000Y-86060000I150000J0D01*
G01*
X190185000Y-86060000D01*
G75*
G02*
X190335000Y-86210000I0J-150000D01*
G01*
G37*
G36*
G01*
X190335000Y-87480000D02*
X190335000Y-87780000D01*
G75*
G02*
X190185000Y-87930000I-150000J0D01*
G01*
X188535000Y-87930000D01*
G75*
G02*
X188385000Y-87780000I0J150000D01*
G01*
X188385000Y-87480000D01*
G75*
G02*
X188535000Y-87330000I150000J0D01*
G01*
X190185000Y-87330000D01*
G75*
G02*
X190335000Y-87480000I0J-150000D01*
G01*
G37*
G36*
G01*
X190335000Y-88750000D02*
X190335000Y-89050000D01*
G75*
G02*
X190185000Y-89200000I-150000J0D01*
G01*
X188535000Y-89200000D01*
G75*
G02*
X188385000Y-89050000I0J150000D01*
G01*
X188385000Y-88750000D01*
G75*
G02*
X188535000Y-88600000I150000J0D01*
G01*
X190185000Y-88600000D01*
G75*
G02*
X190335000Y-88750000I0J-150000D01*
G01*
G37*
G36*
G01*
X190335000Y-90020000D02*
X190335000Y-90320000D01*
G75*
G02*
X190185000Y-90470000I-150000J0D01*
G01*
X188535000Y-90470000D01*
G75*
G02*
X188385000Y-90320000I0J150000D01*
G01*
X188385000Y-90020000D01*
G75*
G02*
X188535000Y-89870000I150000J0D01*
G01*
X190185000Y-89870000D01*
G75*
G02*
X190335000Y-90020000I0J-150000D01*
G01*
G37*
D22*
X109705000Y-79430000D03*
X109705000Y-74930000D03*
X116205000Y-79430000D03*
X116205000Y-74930000D03*
X109705000Y-68635000D03*
X109705000Y-64135000D03*
X116205000Y-68635000D03*
X116205000Y-64135000D03*
X109705000Y-53395000D03*
X109705000Y-48895000D03*
X116205000Y-53340000D03*
X116205000Y-48895000D03*
D19*
X154749500Y-105410000D03*
D23*
X172529500Y-97790000D03*
X157289500Y-105410000D03*
X169989500Y-97790000D03*
X159829500Y-105410000D03*
X167449500Y-97790000D03*
X162369500Y-105410000D03*
X164909500Y-97790000D03*
X164909500Y-105410000D03*
X162369500Y-97790000D03*
X167449500Y-105410000D03*
X159829500Y-97790000D03*
X169989500Y-105410000D03*
X157289500Y-97790000D03*
X172529500Y-105410000D03*
X154749500Y-97790000D03*
D24*
X105470000Y-119380000D03*
X105470000Y-114300000D03*
D25*
X96320000Y-116840000D03*
G36*
G01*
X166882500Y-50175000D02*
X166882500Y-51425000D01*
G75*
G02*
X166632500Y-51675000I-250000J0D01*
G01*
X165707500Y-51675000D01*
G75*
G02*
X165457500Y-51425000I0J250000D01*
G01*
X165457500Y-50175000D01*
G75*
G02*
X165707500Y-49925000I250000J0D01*
G01*
X166632500Y-49925000D01*
G75*
G02*
X166882500Y-50175000I0J-250000D01*
G01*
G37*
G36*
G01*
X163907500Y-50175000D02*
X163907500Y-51425000D01*
G75*
G02*
X163657500Y-51675000I-250000J0D01*
G01*
X162732500Y-51675000D01*
G75*
G02*
X162482500Y-51425000I0J250000D01*
G01*
X162482500Y-50175000D01*
G75*
G02*
X162732500Y-49925000I250000J0D01*
G01*
X163657500Y-49925000D01*
G75*
G02*
X163907500Y-50175000I0J-250000D01*
G01*
G37*
G36*
G01*
X114595000Y-111135000D02*
X114595000Y-112385000D01*
G75*
G02*
X114345000Y-112635000I-250000J0D01*
G01*
X113420000Y-112635000D01*
G75*
G02*
X113170000Y-112385000I0J250000D01*
G01*
X113170000Y-111135000D01*
G75*
G02*
X113420000Y-110885000I250000J0D01*
G01*
X114345000Y-110885000D01*
G75*
G02*
X114595000Y-111135000I0J-250000D01*
G01*
G37*
G36*
G01*
X111620000Y-111135000D02*
X111620000Y-112385000D01*
G75*
G02*
X111370000Y-112635000I-250000J0D01*
G01*
X110445000Y-112635000D01*
G75*
G02*
X110195000Y-112385000I0J250000D01*
G01*
X110195000Y-111135000D01*
G75*
G02*
X110445000Y-110885000I250000J0D01*
G01*
X111370000Y-110885000D01*
G75*
G02*
X111620000Y-111135000I0J-250000D01*
G01*
G37*
G36*
G01*
X114290000Y-119040000D02*
X113040000Y-119040000D01*
G75*
G02*
X112790000Y-118790000I0J250000D01*
G01*
X112790000Y-117865000D01*
G75*
G02*
X113040000Y-117615000I250000J0D01*
G01*
X114290000Y-117615000D01*
G75*
G02*
X114540000Y-117865000I0J-250000D01*
G01*
X114540000Y-118790000D01*
G75*
G02*
X114290000Y-119040000I-250000J0D01*
G01*
G37*
G36*
G01*
X114290000Y-116065000D02*
X113040000Y-116065000D01*
G75*
G02*
X112790000Y-115815000I0J250000D01*
G01*
X112790000Y-114890000D01*
G75*
G02*
X113040000Y-114640000I250000J0D01*
G01*
X114290000Y-114640000D01*
G75*
G02*
X114540000Y-114890000I0J-250000D01*
G01*
X114540000Y-115815000D01*
G75*
G02*
X114290000Y-116065000I-250000J0D01*
G01*
G37*
G36*
G01*
X160800000Y-90286500D02*
X160800000Y-89036500D01*
G75*
G02*
X161050000Y-88786500I250000J0D01*
G01*
X161975000Y-88786500D01*
G75*
G02*
X162225000Y-89036500I0J-250000D01*
G01*
X162225000Y-90286500D01*
G75*
G02*
X161975000Y-90536500I-250000J0D01*
G01*
X161050000Y-90536500D01*
G75*
G02*
X160800000Y-90286500I0J250000D01*
G01*
G37*
G36*
G01*
X163775000Y-90286500D02*
X163775000Y-89036500D01*
G75*
G02*
X164025000Y-88786500I250000J0D01*
G01*
X164950000Y-88786500D01*
G75*
G02*
X165200000Y-89036500I0J-250000D01*
G01*
X165200000Y-90286500D01*
G75*
G02*
X164950000Y-90536500I-250000J0D01*
G01*
X164025000Y-90536500D01*
G75*
G02*
X163775000Y-90286500I0J250000D01*
G01*
G37*
G36*
G01*
X150800000Y-90286500D02*
X150800000Y-89036500D01*
G75*
G02*
X151050000Y-88786500I250000J0D01*
G01*
X151975000Y-88786500D01*
G75*
G02*
X152225000Y-89036500I0J-250000D01*
G01*
X152225000Y-90286500D01*
G75*
G02*
X151975000Y-90536500I-250000J0D01*
G01*
X151050000Y-90536500D01*
G75*
G02*
X150800000Y-90286500I0J250000D01*
G01*
G37*
G36*
G01*
X153775000Y-90286500D02*
X153775000Y-89036500D01*
G75*
G02*
X154025000Y-88786500I250000J0D01*
G01*
X154950000Y-88786500D01*
G75*
G02*
X155200000Y-89036500I0J-250000D01*
G01*
X155200000Y-90286500D01*
G75*
G02*
X154950000Y-90536500I-250000J0D01*
G01*
X154025000Y-90536500D01*
G75*
G02*
X153775000Y-90286500I0J250000D01*
G01*
G37*
G36*
G01*
X160800000Y-114100000D02*
X160800000Y-112850000D01*
G75*
G02*
X161050000Y-112600000I250000J0D01*
G01*
X161975000Y-112600000D01*
G75*
G02*
X162225000Y-112850000I0J-250000D01*
G01*
X162225000Y-114100000D01*
G75*
G02*
X161975000Y-114350000I-250000J0D01*
G01*
X161050000Y-114350000D01*
G75*
G02*
X160800000Y-114100000I0J250000D01*
G01*
G37*
G36*
G01*
X163775000Y-114100000D02*
X163775000Y-112850000D01*
G75*
G02*
X164025000Y-112600000I250000J0D01*
G01*
X164950000Y-112600000D01*
G75*
G02*
X165200000Y-112850000I0J-250000D01*
G01*
X165200000Y-114100000D01*
G75*
G02*
X164950000Y-114350000I-250000J0D01*
G01*
X164025000Y-114350000D01*
G75*
G02*
X163775000Y-114100000I0J250000D01*
G01*
G37*
G36*
G01*
X150800000Y-122100000D02*
X150800000Y-120850000D01*
G75*
G02*
X151050000Y-120600000I250000J0D01*
G01*
X151975000Y-120600000D01*
G75*
G02*
X152225000Y-120850000I0J-250000D01*
G01*
X152225000Y-122100000D01*
G75*
G02*
X151975000Y-122350000I-250000J0D01*
G01*
X151050000Y-122350000D01*
G75*
G02*
X150800000Y-122100000I0J250000D01*
G01*
G37*
G36*
G01*
X153775000Y-122100000D02*
X153775000Y-120850000D01*
G75*
G02*
X154025000Y-120600000I250000J0D01*
G01*
X154950000Y-120600000D01*
G75*
G02*
X155200000Y-120850000I0J-250000D01*
G01*
X155200000Y-122100000D01*
G75*
G02*
X154950000Y-122350000I-250000J0D01*
G01*
X154025000Y-122350000D01*
G75*
G02*
X153775000Y-122100000I0J250000D01*
G01*
G37*
G36*
G01*
X160800000Y-82286500D02*
X160800000Y-81036500D01*
G75*
G02*
X161050000Y-80786500I250000J0D01*
G01*
X161975000Y-80786500D01*
G75*
G02*
X162225000Y-81036500I0J-250000D01*
G01*
X162225000Y-82286500D01*
G75*
G02*
X161975000Y-82536500I-250000J0D01*
G01*
X161050000Y-82536500D01*
G75*
G02*
X160800000Y-82286500I0J250000D01*
G01*
G37*
G36*
G01*
X163775000Y-82286500D02*
X163775000Y-81036500D01*
G75*
G02*
X164025000Y-80786500I250000J0D01*
G01*
X164950000Y-80786500D01*
G75*
G02*
X165200000Y-81036500I0J-250000D01*
G01*
X165200000Y-82286500D01*
G75*
G02*
X164950000Y-82536500I-250000J0D01*
G01*
X164025000Y-82536500D01*
G75*
G02*
X163775000Y-82286500I0J250000D01*
G01*
G37*
G36*
G01*
X150800000Y-82286500D02*
X150800000Y-81036500D01*
G75*
G02*
X151050000Y-80786500I250000J0D01*
G01*
X151975000Y-80786500D01*
G75*
G02*
X152225000Y-81036500I0J-250000D01*
G01*
X152225000Y-82286500D01*
G75*
G02*
X151975000Y-82536500I-250000J0D01*
G01*
X151050000Y-82536500D01*
G75*
G02*
X150800000Y-82286500I0J250000D01*
G01*
G37*
G36*
G01*
X153775000Y-82286500D02*
X153775000Y-81036500D01*
G75*
G02*
X154025000Y-80786500I250000J0D01*
G01*
X154950000Y-80786500D01*
G75*
G02*
X155200000Y-81036500I0J-250000D01*
G01*
X155200000Y-82286500D01*
G75*
G02*
X154950000Y-82536500I-250000J0D01*
G01*
X154025000Y-82536500D01*
G75*
G02*
X153775000Y-82286500I0J250000D01*
G01*
G37*
G36*
G01*
X160800000Y-122100000D02*
X160800000Y-120850000D01*
G75*
G02*
X161050000Y-120600000I250000J0D01*
G01*
X161975000Y-120600000D01*
G75*
G02*
X162225000Y-120850000I0J-250000D01*
G01*
X162225000Y-122100000D01*
G75*
G02*
X161975000Y-122350000I-250000J0D01*
G01*
X161050000Y-122350000D01*
G75*
G02*
X160800000Y-122100000I0J250000D01*
G01*
G37*
G36*
G01*
X163775000Y-122100000D02*
X163775000Y-120850000D01*
G75*
G02*
X164025000Y-120600000I250000J0D01*
G01*
X164950000Y-120600000D01*
G75*
G02*
X165200000Y-120850000I0J-250000D01*
G01*
X165200000Y-122100000D01*
G75*
G02*
X164950000Y-122350000I-250000J0D01*
G01*
X164025000Y-122350000D01*
G75*
G02*
X163775000Y-122100000I0J250000D01*
G01*
G37*
G36*
G01*
X150800000Y-114100000D02*
X150800000Y-112850000D01*
G75*
G02*
X151050000Y-112600000I250000J0D01*
G01*
X151975000Y-112600000D01*
G75*
G02*
X152225000Y-112850000I0J-250000D01*
G01*
X152225000Y-114100000D01*
G75*
G02*
X151975000Y-114350000I-250000J0D01*
G01*
X151050000Y-114350000D01*
G75*
G02*
X150800000Y-114100000I0J250000D01*
G01*
G37*
G36*
G01*
X153775000Y-114100000D02*
X153775000Y-112850000D01*
G75*
G02*
X154025000Y-112600000I250000J0D01*
G01*
X154950000Y-112600000D01*
G75*
G02*
X155200000Y-112850000I0J-250000D01*
G01*
X155200000Y-114100000D01*
G75*
G02*
X154950000Y-114350000I-250000J0D01*
G01*
X154025000Y-114350000D01*
G75*
G02*
X153775000Y-114100000I0J250000D01*
G01*
G37*
G36*
G01*
X110612500Y-122545000D02*
X110612500Y-121295000D01*
G75*
G02*
X110862500Y-121045000I250000J0D01*
G01*
X111787500Y-121045000D01*
G75*
G02*
X112037500Y-121295000I0J-250000D01*
G01*
X112037500Y-122545000D01*
G75*
G02*
X111787500Y-122795000I-250000J0D01*
G01*
X110862500Y-122795000D01*
G75*
G02*
X110612500Y-122545000I0J250000D01*
G01*
G37*
G36*
G01*
X113587500Y-122545000D02*
X113587500Y-121295000D01*
G75*
G02*
X113837500Y-121045000I250000J0D01*
G01*
X114762500Y-121045000D01*
G75*
G02*
X115012500Y-121295000I0J-250000D01*
G01*
X115012500Y-122545000D01*
G75*
G02*
X114762500Y-122795000I-250000J0D01*
G01*
X113837500Y-122795000D01*
G75*
G02*
X113587500Y-122545000I0J250000D01*
G01*
G37*
G36*
G01*
X181315000Y-101590000D02*
X181315000Y-100340000D01*
G75*
G02*
X181565000Y-100090000I250000J0D01*
G01*
X182490000Y-100090000D01*
G75*
G02*
X182740000Y-100340000I0J-250000D01*
G01*
X182740000Y-101590000D01*
G75*
G02*
X182490000Y-101840000I-250000J0D01*
G01*
X181565000Y-101840000D01*
G75*
G02*
X181315000Y-101590000I0J250000D01*
G01*
G37*
G36*
G01*
X184290000Y-101590000D02*
X184290000Y-100340000D01*
G75*
G02*
X184540000Y-100090000I250000J0D01*
G01*
X185465000Y-100090000D01*
G75*
G02*
X185715000Y-100340000I0J-250000D01*
G01*
X185715000Y-101590000D01*
G75*
G02*
X185465000Y-101840000I-250000J0D01*
G01*
X184540000Y-101840000D01*
G75*
G02*
X184290000Y-101590000I0J250000D01*
G01*
G37*
D26*
X186510000Y-75445000D03*
X189410000Y-75445000D03*
X189410000Y-73145000D03*
X186510000Y-73145000D03*
D27*
X104775000Y-86360000D03*
D28*
X104775000Y-92660000D03*
X107075000Y-92660000D03*
X102475000Y-92660000D03*
G36*
G01*
X184845000Y-125085000D02*
X184845000Y-123835000D01*
G75*
G02*
X185095000Y-123585000I250000J0D01*
G01*
X185895000Y-123585000D01*
G75*
G02*
X186145000Y-123835000I0J-250000D01*
G01*
X186145000Y-125085000D01*
G75*
G02*
X185895000Y-125335000I-250000J0D01*
G01*
X185095000Y-125335000D01*
G75*
G02*
X184845000Y-125085000I0J250000D01*
G01*
G37*
G36*
G01*
X187945000Y-125085000D02*
X187945000Y-123835000D01*
G75*
G02*
X188195000Y-123585000I250000J0D01*
G01*
X188995000Y-123585000D01*
G75*
G02*
X189245000Y-123835000I0J-250000D01*
G01*
X189245000Y-125085000D01*
G75*
G02*
X188995000Y-125335000I-250000J0D01*
G01*
X188195000Y-125335000D01*
G75*
G02*
X187945000Y-125085000I0J250000D01*
G01*
G37*
G36*
G01*
X177225000Y-125085000D02*
X177225000Y-123835000D01*
G75*
G02*
X177475000Y-123585000I250000J0D01*
G01*
X178275000Y-123585000D01*
G75*
G02*
X178525000Y-123835000I0J-250000D01*
G01*
X178525000Y-125085000D01*
G75*
G02*
X178275000Y-125335000I-250000J0D01*
G01*
X177475000Y-125335000D01*
G75*
G02*
X177225000Y-125085000I0J250000D01*
G01*
G37*
G36*
G01*
X180325000Y-125085000D02*
X180325000Y-123835000D01*
G75*
G02*
X180575000Y-123585000I250000J0D01*
G01*
X181375000Y-123585000D01*
G75*
G02*
X181625000Y-123835000I0J-250000D01*
G01*
X181625000Y-125085000D01*
G75*
G02*
X181375000Y-125335000I-250000J0D01*
G01*
X180575000Y-125335000D01*
G75*
G02*
X180325000Y-125085000I0J250000D01*
G01*
G37*
G36*
G01*
X150485000Y-75505000D02*
X149235000Y-75505000D01*
G75*
G02*
X148985000Y-75255000I0J250000D01*
G01*
X148985000Y-74455000D01*
G75*
G02*
X149235000Y-74205000I250000J0D01*
G01*
X150485000Y-74205000D01*
G75*
G02*
X150735000Y-74455000I0J-250000D01*
G01*
X150735000Y-75255000D01*
G75*
G02*
X150485000Y-75505000I-250000J0D01*
G01*
G37*
G36*
G01*
X150485000Y-72405000D02*
X149235000Y-72405000D01*
G75*
G02*
X148985000Y-72155000I0J250000D01*
G01*
X148985000Y-71355000D01*
G75*
G02*
X149235000Y-71105000I250000J0D01*
G01*
X150485000Y-71105000D01*
G75*
G02*
X150735000Y-71355000I0J-250000D01*
G01*
X150735000Y-72155000D01*
G75*
G02*
X150485000Y-72405000I-250000J0D01*
G01*
G37*
G36*
G01*
X162620000Y-62855000D02*
X162620000Y-61605000D01*
G75*
G02*
X162870000Y-61355000I250000J0D01*
G01*
X163670000Y-61355000D01*
G75*
G02*
X163920000Y-61605000I0J-250000D01*
G01*
X163920000Y-62855000D01*
G75*
G02*
X163670000Y-63105000I-250000J0D01*
G01*
X162870000Y-63105000D01*
G75*
G02*
X162620000Y-62855000I0J250000D01*
G01*
G37*
G36*
G01*
X165720000Y-62855000D02*
X165720000Y-61605000D01*
G75*
G02*
X165970000Y-61355000I250000J0D01*
G01*
X166770000Y-61355000D01*
G75*
G02*
X167020000Y-61605000I0J-250000D01*
G01*
X167020000Y-62855000D01*
G75*
G02*
X166770000Y-63105000I-250000J0D01*
G01*
X165970000Y-63105000D01*
G75*
G02*
X165720000Y-62855000I0J250000D01*
G01*
G37*
G36*
G01*
X167020000Y-66685000D02*
X167020000Y-67935000D01*
G75*
G02*
X166770000Y-68185000I-250000J0D01*
G01*
X165970000Y-68185000D01*
G75*
G02*
X165720000Y-67935000I0J250000D01*
G01*
X165720000Y-66685000D01*
G75*
G02*
X165970000Y-66435000I250000J0D01*
G01*
X166770000Y-66435000D01*
G75*
G02*
X167020000Y-66685000I0J-250000D01*
G01*
G37*
G36*
G01*
X163920000Y-66685000D02*
X163920000Y-67935000D01*
G75*
G02*
X163670000Y-68185000I-250000J0D01*
G01*
X162870000Y-68185000D01*
G75*
G02*
X162620000Y-67935000I0J250000D01*
G01*
X162620000Y-66685000D01*
G75*
G02*
X162870000Y-66435000I250000J0D01*
G01*
X163670000Y-66435000D01*
G75*
G02*
X163920000Y-66685000I0J-250000D01*
G01*
G37*
G36*
G01*
X94200000Y-104375000D02*
X94200000Y-105625000D01*
G75*
G02*
X93950000Y-105875000I-250000J0D01*
G01*
X93150000Y-105875000D01*
G75*
G02*
X92900000Y-105625000I0J250000D01*
G01*
X92900000Y-104375000D01*
G75*
G02*
X93150000Y-104125000I250000J0D01*
G01*
X93950000Y-104125000D01*
G75*
G02*
X94200000Y-104375000I0J-250000D01*
G01*
G37*
G36*
G01*
X91100000Y-104375000D02*
X91100000Y-105625000D01*
G75*
G02*
X90850000Y-105875000I-250000J0D01*
G01*
X90050000Y-105875000D01*
G75*
G02*
X89800000Y-105625000I0J250000D01*
G01*
X89800000Y-104375000D01*
G75*
G02*
X90050000Y-104125000I250000J0D01*
G01*
X90850000Y-104125000D01*
G75*
G02*
X91100000Y-104375000I0J-250000D01*
G01*
G37*
G36*
G01*
X94200000Y-97375000D02*
X94200000Y-98625000D01*
G75*
G02*
X93950000Y-98875000I-250000J0D01*
G01*
X93150000Y-98875000D01*
G75*
G02*
X92900000Y-98625000I0J250000D01*
G01*
X92900000Y-97375000D01*
G75*
G02*
X93150000Y-97125000I250000J0D01*
G01*
X93950000Y-97125000D01*
G75*
G02*
X94200000Y-97375000I0J-250000D01*
G01*
G37*
G36*
G01*
X91100000Y-97375000D02*
X91100000Y-98625000D01*
G75*
G02*
X90850000Y-98875000I-250000J0D01*
G01*
X90050000Y-98875000D01*
G75*
G02*
X89800000Y-98625000I0J250000D01*
G01*
X89800000Y-97375000D01*
G75*
G02*
X90050000Y-97125000I250000J0D01*
G01*
X90850000Y-97125000D01*
G75*
G02*
X91100000Y-97375000I0J-250000D01*
G01*
G37*
G36*
G01*
X121910000Y-80025000D02*
X120660000Y-80025000D01*
G75*
G02*
X120410000Y-79775000I0J250000D01*
G01*
X120410000Y-78975000D01*
G75*
G02*
X120660000Y-78725000I250000J0D01*
G01*
X121910000Y-78725000D01*
G75*
G02*
X122160000Y-78975000I0J-250000D01*
G01*
X122160000Y-79775000D01*
G75*
G02*
X121910000Y-80025000I-250000J0D01*
G01*
G37*
G36*
G01*
X121910000Y-76925000D02*
X120660000Y-76925000D01*
G75*
G02*
X120410000Y-76675000I0J250000D01*
G01*
X120410000Y-75875000D01*
G75*
G02*
X120660000Y-75625000I250000J0D01*
G01*
X121910000Y-75625000D01*
G75*
G02*
X122160000Y-75875000I0J-250000D01*
G01*
X122160000Y-76675000D01*
G75*
G02*
X121910000Y-76925000I-250000J0D01*
G01*
G37*
G36*
G01*
X121910400Y-69285000D02*
X120659600Y-69285000D01*
G75*
G02*
X120410000Y-69035400I0J249600D01*
G01*
X120410000Y-68234600D01*
G75*
G02*
X120659600Y-67985000I249600J0D01*
G01*
X121910400Y-67985000D01*
G75*
G02*
X122160000Y-68234600I0J-249600D01*
G01*
X122160000Y-69035400D01*
G75*
G02*
X121910400Y-69285000I-249600J0D01*
G01*
G37*
G36*
G01*
X121910000Y-65775000D02*
X120660000Y-65775000D01*
G75*
G02*
X120410000Y-65525000I0J250000D01*
G01*
X120410000Y-64725000D01*
G75*
G02*
X120660000Y-64475000I250000J0D01*
G01*
X121910000Y-64475000D01*
G75*
G02*
X122160000Y-64725000I0J-250000D01*
G01*
X122160000Y-65525000D01*
G75*
G02*
X121910000Y-65775000I-250000J0D01*
G01*
G37*
G36*
G01*
X125739600Y-49007000D02*
X126990400Y-49007000D01*
G75*
G02*
X127240000Y-49256600I0J-249600D01*
G01*
X127240000Y-50057400D01*
G75*
G02*
X126990400Y-50307000I-249600J0D01*
G01*
X125739600Y-50307000D01*
G75*
G02*
X125490000Y-50057400I0J249600D01*
G01*
X125490000Y-49256600D01*
G75*
G02*
X125739600Y-49007000I249600J0D01*
G01*
G37*
G36*
G01*
X125740000Y-52690000D02*
X126990000Y-52690000D01*
G75*
G02*
X127240000Y-52940000I0J-250000D01*
G01*
X127240000Y-53740000D01*
G75*
G02*
X126990000Y-53990000I-250000J0D01*
G01*
X125740000Y-53990000D01*
G75*
G02*
X125490000Y-53740000I0J250000D01*
G01*
X125490000Y-52940000D01*
G75*
G02*
X125740000Y-52690000I250000J0D01*
G01*
G37*
G36*
G01*
X146675000Y-75505000D02*
X145425000Y-75505000D01*
G75*
G02*
X145175000Y-75255000I0J250000D01*
G01*
X145175000Y-74455000D01*
G75*
G02*
X145425000Y-74205000I250000J0D01*
G01*
X146675000Y-74205000D01*
G75*
G02*
X146925000Y-74455000I0J-250000D01*
G01*
X146925000Y-75255000D01*
G75*
G02*
X146675000Y-75505000I-250000J0D01*
G01*
G37*
G36*
G01*
X146675000Y-72405000D02*
X145425000Y-72405000D01*
G75*
G02*
X145175000Y-72155000I0J250000D01*
G01*
X145175000Y-71355000D01*
G75*
G02*
X145425000Y-71105000I250000J0D01*
G01*
X146675000Y-71105000D01*
G75*
G02*
X146925000Y-71355000I0J-250000D01*
G01*
X146925000Y-72155000D01*
G75*
G02*
X146675000Y-72405000I-250000J0D01*
G01*
G37*
D29*
X188595000Y-130175000D03*
X189865000Y-130175000D03*
D30*
X187325000Y-130175000D03*
D29*
X179070000Y-130175000D03*
X180340000Y-130175000D03*
D30*
X177800000Y-130175000D03*
D31*
X179070000Y-116840000D03*
D32*
X184150000Y-116840000D03*
D31*
X193675000Y-116840000D03*
D32*
X198755000Y-116840000D03*
D13*
X171450000Y-131445000D03*
D12*
X168910000Y-131445000D03*
X166370000Y-131445000D03*
X163830000Y-131445000D03*
X161290000Y-131445000D03*
X158750000Y-131445000D03*
X156210000Y-131445000D03*
X153670000Y-131445000D03*
D13*
X130175000Y-79375000D03*
D12*
X130175000Y-81915000D03*
X130175000Y-84455000D03*
D13*
X135890000Y-131445000D03*
D12*
X138430000Y-131445000D03*
X140970000Y-131445000D03*
X143510000Y-131445000D03*
D31*
X142240000Y-85661500D03*
D32*
X137160000Y-85661500D03*
D31*
X137160000Y-117475000D03*
D32*
X142240000Y-117475000D03*
D31*
X123634500Y-98996500D03*
D32*
X123634500Y-104076500D03*
G36*
G01*
X187665000Y-101590000D02*
X187665000Y-100340000D01*
G75*
G02*
X187915000Y-100090000I250000J0D01*
G01*
X188840000Y-100090000D01*
G75*
G02*
X189090000Y-100340000I0J-250000D01*
G01*
X189090000Y-101590000D01*
G75*
G02*
X188840000Y-101840000I-250000J0D01*
G01*
X187915000Y-101840000D01*
G75*
G02*
X187665000Y-101590000I0J250000D01*
G01*
G37*
G36*
G01*
X190640000Y-101590000D02*
X190640000Y-100340000D01*
G75*
G02*
X190890000Y-100090000I250000J0D01*
G01*
X191815000Y-100090000D01*
G75*
G02*
X192065000Y-100340000I0J-250000D01*
G01*
X192065000Y-101590000D01*
G75*
G02*
X191815000Y-101840000I-250000J0D01*
G01*
X190890000Y-101840000D01*
G75*
G02*
X190640000Y-101590000I0J250000D01*
G01*
G37*
G36*
G01*
X83400000Y-105450001D02*
X83400000Y-104549999D01*
G75*
G02*
X83649999Y-104300000I249999J0D01*
G01*
X84300001Y-104300000D01*
G75*
G02*
X84550000Y-104549999I0J-249999D01*
G01*
X84550000Y-105450001D01*
G75*
G02*
X84300001Y-105700000I-249999J0D01*
G01*
X83649999Y-105700000D01*
G75*
G02*
X83400000Y-105450001I0J249999D01*
G01*
G37*
G36*
G01*
X85450000Y-105450001D02*
X85450000Y-104549999D01*
G75*
G02*
X85699999Y-104300000I249999J0D01*
G01*
X86350001Y-104300000D01*
G75*
G02*
X86600000Y-104549999I0J-249999D01*
G01*
X86600000Y-105450001D01*
G75*
G02*
X86350001Y-105700000I-249999J0D01*
G01*
X85699999Y-105700000D01*
G75*
G02*
X85450000Y-105450001I0J249999D01*
G01*
G37*
G36*
G01*
X83400000Y-98450001D02*
X83400000Y-97549999D01*
G75*
G02*
X83649999Y-97300000I249999J0D01*
G01*
X84300001Y-97300000D01*
G75*
G02*
X84550000Y-97549999I0J-249999D01*
G01*
X84550000Y-98450001D01*
G75*
G02*
X84300001Y-98700000I-249999J0D01*
G01*
X83649999Y-98700000D01*
G75*
G02*
X83400000Y-98450001I0J249999D01*
G01*
G37*
G36*
G01*
X85450000Y-98450001D02*
X85450000Y-97549999D01*
G75*
G02*
X85699999Y-97300000I249999J0D01*
G01*
X86350001Y-97300000D01*
G75*
G02*
X86600000Y-97549999I0J-249999D01*
G01*
X86600000Y-98450001D01*
G75*
G02*
X86350001Y-98700000I-249999J0D01*
G01*
X85699999Y-98700000D01*
G75*
G02*
X85450000Y-98450001I0J249999D01*
G01*
G37*
G36*
G01*
X143325001Y-74870000D02*
X142424999Y-74870000D01*
G75*
G02*
X142175000Y-74620001I0J249999D01*
G01*
X142175000Y-73969999D01*
G75*
G02*
X142424999Y-73720000I249999J0D01*
G01*
X143325001Y-73720000D01*
G75*
G02*
X143575000Y-73969999I0J-249999D01*
G01*
X143575000Y-74620001D01*
G75*
G02*
X143325001Y-74870000I-249999J0D01*
G01*
G37*
G36*
G01*
X143325001Y-72820000D02*
X142424999Y-72820000D01*
G75*
G02*
X142175000Y-72570001I0J249999D01*
G01*
X142175000Y-71919999D01*
G75*
G02*
X142424999Y-71670000I249999J0D01*
G01*
X143325001Y-71670000D01*
G75*
G02*
X143575000Y-71919999I0J-249999D01*
G01*
X143575000Y-72570001D01*
G75*
G02*
X143325001Y-72820000I-249999J0D01*
G01*
G37*
D33*
X186350000Y-62900000D03*
X186350000Y-59700000D03*
X181450000Y-62900000D03*
X181450000Y-59700000D03*
X186350000Y-143500000D03*
X186350000Y-140300000D03*
X181450000Y-143500000D03*
X181450000Y-140300000D03*
X97950000Y-143500000D03*
X97950000Y-140300000D03*
X93050000Y-143500000D03*
X93050000Y-140300000D03*
X97950000Y-62900000D03*
X97950000Y-59700000D03*
X93050000Y-62900000D03*
X93050000Y-59700000D03*
G36*
G01*
X121935001Y-54002500D02*
X120634999Y-54002500D01*
G75*
G02*
X120385000Y-53752501I0J249999D01*
G01*
X120385000Y-52927499D01*
G75*
G02*
X120634999Y-52677500I249999J0D01*
G01*
X121935001Y-52677500D01*
G75*
G02*
X122185000Y-52927499I0J-249999D01*
G01*
X122185000Y-53752501D01*
G75*
G02*
X121935001Y-54002500I-249999J0D01*
G01*
G37*
G36*
G01*
X121934575Y-50319500D02*
X120635425Y-50319500D01*
G75*
G02*
X120385000Y-50069075I0J250425D01*
G01*
X120385000Y-49244925D01*
G75*
G02*
X120635425Y-48994500I250425J0D01*
G01*
X121934575Y-48994500D01*
G75*
G02*
X122185000Y-49244925I0J-250425D01*
G01*
X122185000Y-50069075D01*
G75*
G02*
X121934575Y-50319500I-250425J0D01*
G01*
G37*
G36*
G01*
X108180000Y-104860000D02*
X108180000Y-105960000D01*
G75*
G02*
X107930000Y-106210000I-250000J0D01*
G01*
X105430000Y-106210000D01*
G75*
G02*
X105180000Y-105960000I0J250000D01*
G01*
X105180000Y-104860000D01*
G75*
G02*
X105430000Y-104610000I250000J0D01*
G01*
X107930000Y-104610000D01*
G75*
G02*
X108180000Y-104860000I0J-250000D01*
G01*
G37*
G36*
G01*
X103780000Y-104860000D02*
X103780000Y-105960000D01*
G75*
G02*
X103530000Y-106210000I-250000J0D01*
G01*
X101030000Y-106210000D01*
G75*
G02*
X100780000Y-105960000I0J250000D01*
G01*
X100780000Y-104860000D01*
G75*
G02*
X101030000Y-104610000I250000J0D01*
G01*
X103530000Y-104610000D01*
G75*
G02*
X103780000Y-104860000I0J-250000D01*
G01*
G37*
G36*
G01*
X108590000Y-129625000D02*
X108590000Y-130725000D01*
G75*
G02*
X108340000Y-130975000I-250000J0D01*
G01*
X105340000Y-130975000D01*
G75*
G02*
X105090000Y-130725000I0J250000D01*
G01*
X105090000Y-129625000D01*
G75*
G02*
X105340000Y-129375000I250000J0D01*
G01*
X108340000Y-129375000D01*
G75*
G02*
X108590000Y-129625000I0J-250000D01*
G01*
G37*
G36*
G01*
X103190000Y-129625000D02*
X103190000Y-130725000D01*
G75*
G02*
X102940000Y-130975000I-250000J0D01*
G01*
X99940000Y-130975000D01*
G75*
G02*
X99690000Y-130725000I0J250000D01*
G01*
X99690000Y-129625000D01*
G75*
G02*
X99940000Y-129375000I250000J0D01*
G01*
X102940000Y-129375000D01*
G75*
G02*
X103190000Y-129625000I0J-250000D01*
G01*
G37*
G36*
G01*
X95165000Y-93235000D02*
X94065000Y-93235000D01*
G75*
G02*
X93815000Y-92985000I0J250000D01*
G01*
X93815000Y-90485000D01*
G75*
G02*
X94065000Y-90235000I250000J0D01*
G01*
X95165000Y-90235000D01*
G75*
G02*
X95415000Y-90485000I0J-250000D01*
G01*
X95415000Y-92985000D01*
G75*
G02*
X95165000Y-93235000I-250000J0D01*
G01*
G37*
G36*
G01*
X95165000Y-88835000D02*
X94065000Y-88835000D01*
G75*
G02*
X93815000Y-88585000I0J250000D01*
G01*
X93815000Y-86085000D01*
G75*
G02*
X94065000Y-85835000I250000J0D01*
G01*
X95165000Y-85835000D01*
G75*
G02*
X95415000Y-86085000I0J-250000D01*
G01*
X95415000Y-88585000D01*
G75*
G02*
X95165000Y-88835000I-250000J0D01*
G01*
G37*
G36*
G01*
X115485000Y-93235000D02*
X114385000Y-93235000D01*
G75*
G02*
X114135000Y-92985000I0J250000D01*
G01*
X114135000Y-90485000D01*
G75*
G02*
X114385000Y-90235000I250000J0D01*
G01*
X115485000Y-90235000D01*
G75*
G02*
X115735000Y-90485000I0J-250000D01*
G01*
X115735000Y-92985000D01*
G75*
G02*
X115485000Y-93235000I-250000J0D01*
G01*
G37*
G36*
G01*
X115485000Y-88835000D02*
X114385000Y-88835000D01*
G75*
G02*
X114135000Y-88585000I0J250000D01*
G01*
X114135000Y-86085000D01*
G75*
G02*
X114385000Y-85835000I250000J0D01*
G01*
X115485000Y-85835000D01*
G75*
G02*
X115735000Y-86085000I0J-250000D01*
G01*
X115735000Y-88585000D01*
G75*
G02*
X115485000Y-88835000I-250000J0D01*
G01*
G37*
G36*
G01*
X193024999Y-71435000D02*
X194325001Y-71435000D01*
G75*
G02*
X194575000Y-71684999I0J-249999D01*
G01*
X194575000Y-72510001D01*
G75*
G02*
X194325001Y-72760000I-249999J0D01*
G01*
X193024999Y-72760000D01*
G75*
G02*
X192775000Y-72510001I0J249999D01*
G01*
X192775000Y-71684999D01*
G75*
G02*
X193024999Y-71435000I249999J0D01*
G01*
G37*
G36*
G01*
X193024999Y-74560000D02*
X194325001Y-74560000D01*
G75*
G02*
X194575000Y-74809999I0J-249999D01*
G01*
X194575000Y-75635001D01*
G75*
G02*
X194325001Y-75885000I-249999J0D01*
G01*
X193024999Y-75885000D01*
G75*
G02*
X192775000Y-75635001I0J249999D01*
G01*
X192775000Y-74809999D01*
G75*
G02*
X193024999Y-74560000I249999J0D01*
G01*
G37*
G36*
G01*
X182895001Y-75885000D02*
X181594999Y-75885000D01*
G75*
G02*
X181345000Y-75635001I0J249999D01*
G01*
X181345000Y-74809999D01*
G75*
G02*
X181594999Y-74560000I249999J0D01*
G01*
X182895001Y-74560000D01*
G75*
G02*
X183145000Y-74809999I0J-249999D01*
G01*
X183145000Y-75635001D01*
G75*
G02*
X182895001Y-75885000I-249999J0D01*
G01*
G37*
G36*
G01*
X182895001Y-72760000D02*
X181594999Y-72760000D01*
G75*
G02*
X181345000Y-72510001I0J249999D01*
G01*
X181345000Y-71684999D01*
G75*
G02*
X181594999Y-71435000I249999J0D01*
G01*
X182895001Y-71435000D01*
G75*
G02*
X183145000Y-71684999I0J-249999D01*
G01*
X183145000Y-72510001D01*
G75*
G02*
X182895001Y-72760000I-249999J0D01*
G01*
G37*
M02*
