M48
; DRILL file {KiCad (5.1.8)-1} date 10/14/21 20:59:19
; FORMAT={-:-/ absolute / metric / decimal}
; #@! TF.CreationDate,2021-10-14T20:59:19+02:00
; #@! TF.GenerationSoftware,Kicad,Pcbnew,(5.1.8)-1
; #@! TF.FileFunction,Plated,1,2,PTH
FMAT,2
METRIC
T1C0.300
T2C0.400
T3C0.750
T4C0.800
T5C0.950
T6C1.000
T7C1.100
T8C1.520
T9C2.300
%
G90
G05
T1
X124.46Y-88.9
X125.095Y-87.63
X125.73Y-88.9
X147.955Y-130.175
X177.165Y-100.33
X177.8Y-100.965
T2
X76.048Y-121.938
X79.555Y-75.557
X80.645Y-98.425
X80.645Y-104.14
X86.995Y-109.855
X86.995Y-112.395
X86.995Y-115.57
X86.995Y-118.745
X86.995Y-121.285
X86.995Y-123.825
X89.535Y-109.855
X89.535Y-112.395
X89.535Y-115.57
X89.535Y-118.745
X89.535Y-121.285
X89.535Y-123.825
X90.17Y-85.725
X92.075Y-109.855
X92.075Y-112.395
X92.075Y-115.57
X92.075Y-118.745
X92.075Y-121.285
X92.075Y-123.825
X94.615Y-109.855
X94.615Y-112.395
X94.615Y-115.57
X94.615Y-118.745
X94.615Y-121.285
X94.615Y-123.825
X95.664Y-73.477
X97.155Y-54.61
X97.79Y-112.395
X97.79Y-115.57
X97.79Y-118.745
X97.79Y-121.285
X99.06Y-93.98
X100.33Y-63.5
X100.33Y-112.395
X100.33Y-115.57
X100.33Y-118.745
X100.33Y-121.285
X100.559Y-141.961
X103.505Y-132.715
X104.775Y-101.6
X110.49Y-42.545
X116.84Y-137.16
X118.11Y-111.76
X118.745Y-85.725
X119.311Y-150.261
X121.92Y-62.865
X121.92Y-73.66
X123.078Y-119.601
X123.825Y-50.8
X126.977Y-166.24
X128.27Y-117.475
X128.905Y-48.26
X129.222Y-119.697
X130.175Y-69.215
X133.985Y-76.835
X135.255Y-62.23
X137.033Y-50.927
X137.16Y-53.975
X137.16Y-57.785
X140.335Y-53.975
X140.335Y-57.785
X140.335Y-74.295
X146.05Y-90.17
X146.685Y-77.47
X149.034Y-82.486
X149.098Y-88.456
X149.86Y-167.005
X150.495Y-55.245
X150.564Y-48.804
X151.13Y-50.8
X154.305Y-136.525
X156.845Y-93.98
X159.385Y-49.53
X161.29Y-48.895
X161.925Y-94.615
X162.56Y-107.95
X163.195Y-102.87
X165.1Y-85.725
X165.1Y-159.385
X167.131Y-81.661
X167.131Y-89.661
X167.766Y-113.475
X167.766Y-121.475
X168.275Y-42.545
X170.815Y-85.725
X171.45Y-91.44
X172.085Y-146.685
X175.895Y-111.125
X176.085Y-68.671
X182.88Y-69.85
X184.92Y-53.21
X186.69Y-70.485
X187.325Y-90.17
X187.325Y-118.745
X188.595Y-78.105
X188.62Y-144.348
X189.23Y-63.5
X190.5Y-96.52
X193.236Y-107.907
X193.675Y-91.44
X194.31Y-77.47
T3
X177.8Y-130.175
X179.07Y-130.175
X180.34Y-130.175
X187.325Y-130.175
X188.595Y-130.175
X189.865Y-130.175
T4
X154.749Y-97.79
X154.749Y-105.41
X157.29Y-97.79
X157.29Y-105.41
X159.829Y-97.79
X159.829Y-105.41
X162.369Y-97.79
X162.369Y-105.41
X164.909Y-97.79
X164.909Y-105.41
X167.45Y-97.79
X167.45Y-105.41
X169.989Y-97.79
X169.989Y-105.41
X172.529Y-97.79
X172.529Y-105.41
T5
X195.165Y-100.965
X195.165Y-103.465
X197.165Y-100.965
X197.165Y-103.465
T6
X114.935Y-131.445
X117.475Y-131.445
X120.015Y-131.445
X122.555Y-131.445
X155.0Y-160.0
X157.54Y-160.0
X160.08Y-160.0
X119.32Y-160.0
X121.86Y-160.0
X124.4Y-160.0
X130.175Y-79.375
X130.175Y-81.915
X130.175Y-84.455
X135.89Y-131.445
X138.43Y-131.445
X140.97Y-131.445
X143.51Y-131.445
X153.67Y-131.445
X156.21Y-131.445
X158.75Y-131.445
X161.29Y-131.445
X163.83Y-131.445
X166.37Y-131.445
X168.91Y-131.445
X171.45Y-131.445
T7
X109.705Y-64.135
X109.705Y-68.635
X116.205Y-64.135
X116.205Y-68.635
X109.705Y-74.93
X109.705Y-79.43
X116.205Y-74.93
X116.205Y-79.43
X109.705Y-48.895
X109.705Y-53.395
X116.205Y-48.895
X116.205Y-53.34
T8
X137.16Y-117.475
X142.24Y-117.475
X179.07Y-116.84
X184.15Y-116.84
X193.675Y-116.84
X198.755Y-116.84
X123.634Y-98.996
X123.634Y-104.076
X137.16Y-85.661
X142.24Y-85.661
T9
X200.025Y-96.215
X200.025Y-108.215
T0
M30
